<svg width="1245" height="657" viewBox="0 0 1245 657" fill="none" xmlns="http://www.w3.org/2000/svg">
<rect x="369" y="385" width="318" height="78" rx="19" stroke="#515151" stroke-width="2"/>
<path d="M390.262 433V417.976H385.054V415.96H397.534V417.976H392.326V433H390.262ZM404.004 433.288C403.204 433.288 402.484 433.144 401.844 432.856C401.204 432.568 400.7 432.168 400.332 431.656C399.964 431.128 399.78 430.52 399.78 429.832C399.78 428.744 400.1 427.904 400.74 427.312C401.396 426.704 402.42 426.264 403.812 425.992L408.084 425.128C408.084 424.04 407.836 423.232 407.34 422.704C406.86 422.176 406.164 421.912 405.252 421.912C404.372 421.912 403.684 422.112 403.188 422.512C402.692 422.896 402.348 423.456 402.156 424.192L400.02 424.024C400.26 422.824 400.828 421.856 401.724 421.12C402.636 420.368 403.812 419.992 405.252 419.992C406.788 419.992 407.98 420.456 408.828 421.384C409.676 422.296 410.1 423.56 410.1 425.176V430.456C410.1 430.744 410.164 430.944 410.292 431.056C410.42 431.168 410.612 431.224 410.868 431.224H411.684V433C411.588 433.016 411.436 433.024 411.228 433.024C411.02 433.04 410.82 433.048 410.628 433.048C410.084 433.048 409.62 432.96 409.236 432.784C408.868 432.608 408.588 432.328 408.396 431.944C408.204 431.544 408.1 431.032 408.084 430.408H408.468C408.356 430.952 408.084 431.448 407.652 431.896C407.236 432.328 406.708 432.672 406.068 432.928C405.428 433.168 404.74 433.288 404.004 433.288ZM404.196 431.512C405.06 431.512 405.78 431.368 406.356 431.08C406.932 430.776 407.364 430.36 407.652 429.832C407.94 429.288 408.084 428.664 408.084 427.96V426.856L404.196 427.624C403.332 427.784 402.732 428.032 402.396 428.368C402.06 428.688 401.892 429.112 401.892 429.64C401.892 430.232 402.092 430.696 402.492 431.032C402.908 431.352 403.476 431.512 404.196 431.512ZM419.187 433.288C417.923 433.288 416.915 432.864 416.163 432.016C415.411 431.152 415.035 429.968 415.035 428.464V420.28H417.051V427.912C417.051 429.144 417.267 430.056 417.699 430.648C418.147 431.224 418.827 431.512 419.739 431.512C420.731 431.512 421.515 431.192 422.091 430.552C422.667 429.896 422.955 429 422.955 427.864V420.28H424.971V433H423.051V429.856L423.363 430.024C423.107 431.064 422.619 431.872 421.899 432.448C421.179 433.008 420.275 433.288 419.187 433.288ZM432.738 433V420.28H434.418L434.61 423.496L434.418 423.448C434.578 422.36 434.922 421.56 435.45 421.048C435.994 420.536 436.714 420.28 437.61 420.28H440.226V422.104H437.634C437.01 422.104 436.482 422.232 436.05 422.488C435.634 422.728 435.314 423.088 435.09 423.568C434.866 424.032 434.754 424.616 434.754 425.32V433H432.738ZM429.426 433V431.224H438.786V433H429.426ZM429.426 422.056V420.28H433.842V422.056H429.426ZM448.688 433V420.28H450.704V433H448.688ZM443.576 433V431.224H455.096V433H443.576ZM443.816 422.056V420.28H450.704V422.056H443.816ZM448.496 418.288V415.936H450.608V418.288H448.496ZM478.406 435.64C477.302 433.976 476.47 432.28 475.91 430.552C475.35 428.808 475.07 427.064 475.07 425.32C475.07 421.768 476.182 418.328 478.406 415H480.206C478.174 418.456 477.158 421.896 477.158 425.32C477.158 427.032 477.414 428.752 477.926 430.48C478.438 432.192 479.198 433.912 480.206 435.64H478.406ZM486.508 433V415.96H491.692C493.484 415.96 494.9 416.416 495.94 417.328C496.98 418.224 497.5 419.464 497.5 421.048C497.5 421.848 497.316 422.56 496.948 423.184C496.58 423.792 496.108 424.272 495.532 424.624C494.956 424.976 494.364 425.176 493.756 425.224L493.66 424.936C494.796 425 495.644 425.272 496.204 425.752C496.78 426.232 497.116 427.016 497.212 428.104L497.644 433H495.58L495.172 428.368C495.124 427.84 494.996 427.416 494.788 427.096C494.596 426.76 494.284 426.52 493.852 426.376C493.436 426.216 492.86 426.136 492.124 426.136H488.572V433H486.508ZM488.572 424.12H491.692C492.876 424.12 493.78 423.856 494.404 423.328C495.028 422.784 495.34 422.024 495.34 421.048C495.34 420.056 495.028 419.296 494.404 418.768C493.78 418.24 492.876 417.976 491.692 417.976H488.572V424.12ZM505.531 433.288C504.267 433.288 503.259 432.864 502.507 432.016C501.755 431.152 501.379 429.968 501.379 428.464V420.28H503.395V427.912C503.395 429.144 503.611 430.056 504.043 430.648C504.491 431.224 505.171 431.512 506.083 431.512C507.075 431.512 507.859 431.192 508.435 430.552C509.011 429.896 509.299 429 509.299 427.864V420.28H511.315V433H509.395V429.856L509.707 430.024C509.451 431.064 508.963 431.872 508.243 432.448C507.523 433.008 506.619 433.288 505.531 433.288ZM521.049 433.288C519.945 433.288 518.993 433.096 518.193 432.712C517.393 432.328 516.761 431.816 516.297 431.176C515.849 430.52 515.593 429.792 515.529 428.992L517.641 428.848C517.769 429.632 518.113 430.248 518.673 430.696C519.249 431.144 520.041 431.368 521.049 431.368C521.993 431.368 522.721 431.232 523.233 430.96C523.761 430.688 524.025 430.264 524.025 429.688C524.025 429.32 523.937 429.016 523.761 428.776C523.585 428.536 523.257 428.336 522.777 428.176C522.297 428 521.593 427.832 520.665 427.672C519.433 427.448 518.465 427.176 517.761 426.856C517.073 426.52 516.585 426.104 516.297 425.608C516.009 425.112 515.865 424.52 515.865 423.832C515.865 423.096 516.049 422.44 516.417 421.864C516.785 421.288 517.329 420.832 518.049 420.496C518.769 420.16 519.649 419.992 520.689 419.992C521.745 419.992 522.625 420.184 523.329 420.568C524.049 420.936 524.617 421.432 525.033 422.056C525.449 422.664 525.721 423.336 525.849 424.072L523.737 424.216C523.641 423.768 523.457 423.376 523.185 423.04C522.929 422.688 522.585 422.416 522.153 422.224C521.737 422.016 521.241 421.912 520.665 421.912C519.737 421.912 519.049 422.096 518.601 422.464C518.153 422.832 517.929 423.288 517.929 423.832C517.929 424.264 518.033 424.608 518.241 424.864C518.449 425.12 518.785 425.328 519.249 425.488C519.713 425.632 520.329 425.768 521.097 425.896C522.409 426.104 523.425 426.376 524.145 426.712C524.865 427.032 525.369 427.432 525.657 427.912C525.945 428.392 526.089 428.984 526.089 429.688C526.089 430.44 525.865 431.088 525.417 431.632C524.985 432.16 524.385 432.568 523.617 432.856C522.865 433.144 522.009 433.288 521.049 433.288ZM537.072 433C535.84 433 534.92 432.712 534.312 432.136C533.704 431.56 533.4 430.68 533.4 429.496V417.304H535.416V429.496C535.416 430.088 535.552 430.528 535.824 430.816C536.096 431.088 536.512 431.224 537.072 431.224H540.48V433H537.072ZM529.2 422.056V420.28H540.48V422.056H529.2ZM548.823 435.64H547.023C548.031 433.912 548.791 432.192 549.303 430.48C549.815 428.752 550.071 427.032 550.071 425.32C550.071 421.896 549.055 418.456 547.023 415H548.823C551.047 418.328 552.159 421.768 552.159 425.32C552.159 427.064 551.879 428.808 551.319 430.552C550.759 432.28 549.927 433.976 548.823 435.64ZM573.332 433V415.96H578.132C580.004 415.96 581.412 416.376 582.356 417.208C583.316 418.04 583.796 419.176 583.796 420.616C583.796 421.32 583.628 421.952 583.292 422.512C582.956 423.072 582.484 423.512 581.876 423.832C581.268 424.152 580.564 424.312 579.764 424.312V424.168C580.756 424.168 581.604 424.336 582.308 424.672C583.028 425.008 583.572 425.48 583.94 426.088C584.324 426.696 584.516 427.416 584.516 428.248C584.516 429.72 584.004 430.88 582.98 431.728C581.956 432.576 580.54 433 578.732 433H573.332ZM575.396 430.984H578.756C579.988 430.984 580.892 430.744 581.468 430.264C582.06 429.784 582.356 429.112 582.356 428.248C582.356 427.336 582.052 426.624 581.444 426.112C580.836 425.6 579.94 425.344 578.756 425.344H575.396V430.984ZM575.396 423.328H578.228C579.412 423.328 580.276 423.096 580.82 422.632C581.364 422.168 581.636 421.512 581.636 420.664C581.636 419.8 581.364 419.136 580.82 418.672C580.276 418.208 579.412 417.976 578.228 417.976H575.396V423.328ZM591.083 433.288C590.283 433.288 589.563 433.144 588.923 432.856C588.283 432.568 587.779 432.168 587.411 431.656C587.043 431.128 586.859 430.52 586.859 429.832C586.859 428.744 587.179 427.904 587.819 427.312C588.475 426.704 589.499 426.264 590.891 425.992L595.163 425.128C595.163 424.04 594.915 423.232 594.419 422.704C593.939 422.176 593.243 421.912 592.331 421.912C591.451 421.912 590.763 422.112 590.267 422.512C589.771 422.896 589.427 423.456 589.235 424.192L587.099 424.024C587.339 422.824 587.907 421.856 588.803 421.12C589.715 420.368 590.891 419.992 592.331 419.992C593.867 419.992 595.059 420.456 595.907 421.384C596.755 422.296 597.179 423.56 597.179 425.176V430.456C597.179 430.744 597.243 430.944 597.371 431.056C597.499 431.168 597.691 431.224 597.947 431.224H598.763V433C598.667 433.016 598.515 433.024 598.307 433.024C598.099 433.04 597.899 433.048 597.707 433.048C597.163 433.048 596.699 432.96 596.315 432.784C595.947 432.608 595.667 432.328 595.475 431.944C595.283 431.544 595.179 431.032 595.163 430.408H595.547C595.435 430.952 595.163 431.448 594.731 431.896C594.315 432.328 593.787 432.672 593.147 432.928C592.507 433.168 591.819 433.288 591.083 433.288ZM591.275 431.512C592.139 431.512 592.859 431.368 593.435 431.08C594.011 430.776 594.443 430.36 594.731 429.832C595.019 429.288 595.163 428.664 595.163 427.96V426.856L591.275 427.624C590.411 427.784 589.811 428.032 589.475 428.368C589.139 428.688 588.971 429.112 588.971 429.64C588.971 430.232 589.171 430.696 589.571 431.032C589.987 431.352 590.555 431.512 591.275 431.512ZM607.489 433.288C606.305 433.288 605.273 433.016 604.393 432.472C603.513 431.928 602.833 431.16 602.353 430.168C601.873 429.16 601.633 427.984 601.633 426.64C601.633 425.296 601.873 424.128 602.353 423.136C602.833 422.144 603.513 421.376 604.393 420.832C605.273 420.272 606.305 419.992 607.489 419.992C608.433 419.992 609.273 420.168 610.009 420.52C610.745 420.856 611.353 421.352 611.833 422.008C612.313 422.664 612.641 423.464 612.817 424.408L610.705 424.552C610.513 423.704 610.129 423.056 609.553 422.608C608.993 422.144 608.305 421.912 607.489 421.912C606.321 421.912 605.401 422.336 604.729 423.184C604.073 424.016 603.745 425.168 603.745 426.64C603.745 428.112 604.073 429.272 604.729 430.12C605.401 430.952 606.321 431.368 607.489 431.368C608.305 431.368 609.009 431.128 609.601 430.648C610.209 430.168 610.609 429.448 610.801 428.488L612.913 428.632C612.737 429.576 612.401 430.4 611.905 431.104C611.409 431.792 610.785 432.328 610.033 432.712C609.281 433.096 608.433 433.288 607.489 433.288ZM616.504 433V415.96H618.52V427.12L624.712 420.28H627.4L622.384 425.68L627.64 433H625.192L621.016 427.048L618.52 429.688V433H616.504ZM636.15 433.288C634.95 433.288 633.91 433.016 633.03 432.472C632.166 431.928 631.494 431.16 631.014 430.168C630.55 429.16 630.318 427.984 630.318 426.64C630.318 425.296 630.55 424.128 631.014 423.136C631.494 422.144 632.158 421.376 633.006 420.832C633.87 420.272 634.886 419.992 636.054 419.992C637.158 419.992 638.134 420.256 638.982 420.784C639.83 421.296 640.494 422.048 640.974 423.04C641.454 424.032 641.694 425.24 641.694 426.664V427.264H632.43C632.51 428.624 632.87 429.648 633.51 430.336C634.166 431.024 635.046 431.368 636.15 431.368C636.982 431.368 637.662 431.176 638.19 430.792C638.734 430.392 639.11 429.872 639.318 429.232L641.478 429.4C641.142 430.536 640.502 431.472 639.558 432.208C638.63 432.928 637.494 433.288 636.15 433.288ZM632.43 425.488H639.486C639.39 424.256 639.03 423.352 638.406 422.776C637.782 422.2 636.998 421.912 636.054 421.912C635.078 421.912 634.27 422.216 633.63 422.824C633.006 423.416 632.606 424.304 632.43 425.488ZM645.141 433V420.28H646.989L647.061 423.52L646.821 423.304C646.981 422.552 647.269 421.936 647.685 421.456C648.117 420.96 648.629 420.592 649.221 420.352C649.813 420.112 650.437 419.992 651.093 419.992C652.069 419.992 652.877 420.208 653.517 420.64C654.173 421.072 654.669 421.656 655.005 422.392C655.341 423.112 655.509 423.92 655.509 424.816V433H653.493V425.392C653.493 424.208 653.261 423.312 652.797 422.704C652.333 422.08 651.621 421.768 650.661 421.768C650.005 421.768 649.413 421.912 648.885 422.2C648.357 422.472 647.933 422.88 647.613 423.424C647.309 423.952 647.157 424.608 647.157 425.392V433H645.141ZM663.924 433.288C662.804 433.288 661.836 433.016 661.02 432.472C660.204 431.928 659.572 431.16 659.124 430.168C658.692 429.176 658.476 428 658.476 426.64C658.476 425.28 658.692 424.104 659.124 423.112C659.572 422.12 660.204 421.352 661.02 420.808C661.836 420.264 662.804 419.992 663.924 419.992C664.82 419.992 665.604 420.208 666.276 420.64C666.948 421.056 667.436 421.528 667.74 422.056V415.96H669.756V433H667.932L667.86 431.08C667.508 431.768 666.988 432.312 666.3 432.712C665.612 433.096 664.82 433.288 663.924 433.288ZM664.044 431.368C664.812 431.368 665.468 431.176 666.012 430.792C666.572 430.408 666.996 429.864 667.284 429.16C667.588 428.44 667.74 427.6 667.74 426.64C667.74 425.648 667.588 424.8 667.284 424.096C666.996 423.392 666.572 422.856 666.012 422.488C665.452 422.104 664.78 421.912 663.996 421.912C662.956 421.912 662.124 422.336 661.5 423.184C660.892 424.016 660.588 425.168 660.588 426.64C660.588 428.096 660.892 429.248 661.5 430.096C662.124 430.944 662.972 431.368 664.044 431.368Z" fill="#515151"/>
<rect x="866" y="322" width="318" height="78" rx="19" stroke="#E5E5E5" stroke-width="2"/>
<path d="M933.621 370V352.96H938.805C939.989 352.96 941.021 353.168 941.901 353.584C942.781 354 943.461 354.6 943.941 355.384C944.421 356.152 944.661 357.08 944.661 358.168C944.661 359.256 944.421 360.192 943.941 360.976C943.461 361.744 942.781 362.336 941.901 362.752C941.021 363.168 939.989 363.376 938.805 363.376H935.685V370H933.621ZM935.685 361.36H938.565C939.909 361.36 940.901 361.088 941.541 360.544C942.181 359.984 942.501 359.192 942.501 358.168C942.501 357.128 942.181 356.336 941.541 355.792C940.901 355.248 939.909 354.976 938.565 354.976H935.685V361.36ZM949.164 373.6V371.824H950.628C951.076 371.824 951.404 371.752 951.612 371.608C951.836 371.48 952.004 371.264 952.116 370.96L952.572 369.76H951.876L947.148 357.28H949.356L953.22 367.888L956.844 357.28H959.052L953.892 371.608C953.652 372.296 953.292 372.8 952.812 373.12C952.332 373.44 951.668 373.6 950.82 373.6H949.164ZM969.314 370C968.082 370 967.162 369.712 966.554 369.136C965.946 368.56 965.642 367.68 965.642 366.496V354.304H967.658V366.496C967.658 367.088 967.794 367.528 968.066 367.816C968.338 368.088 968.754 368.224 969.314 368.224H972.722V370H969.314ZM961.442 359.056V357.28H972.722V359.056H961.442ZM977.033 370V352.96H979.049V360.088L978.809 360.04C978.969 359.336 979.241 358.76 979.625 358.312C980.009 357.864 980.481 357.536 981.041 357.328C981.601 357.104 982.209 356.992 982.865 356.992C983.777 356.992 984.545 357.2 985.169 357.616C985.809 358.016 986.289 358.584 986.609 359.32C986.945 360.04 987.113 360.872 987.113 361.816V370H985.097V362.392C985.097 361.16 984.873 360.248 984.425 359.656C983.993 359.064 983.329 358.768 982.433 358.768C981.409 358.768 980.585 359.08 979.961 359.704C979.353 360.328 979.049 361.232 979.049 362.416V370H977.033ZM996.223 370.288C995.055 370.288 994.031 370.016 993.151 369.472C992.287 368.928 991.615 368.16 991.135 367.168C990.655 366.16 990.415 364.984 990.415 363.64C990.415 362.28 990.655 361.104 991.135 360.112C991.615 359.12 992.287 358.352 993.151 357.808C994.031 357.264 995.055 356.992 996.223 356.992C997.391 356.992 998.407 357.264 999.271 357.808C1000.15 358.352 1000.83 359.12 1001.31 360.112C1001.79 361.104 1002.03 362.28 1002.03 363.64C1002.03 364.984 1001.79 366.16 1001.31 367.168C1000.83 368.16 1000.15 368.928 999.271 369.472C998.407 370.016 997.391 370.288 996.223 370.288ZM996.223 368.368C997.391 368.368 998.295 367.952 998.935 367.12C999.591 366.272 999.919 365.112 999.919 363.64C999.919 362.168 999.591 361.016 998.935 360.184C998.295 359.336 997.391 358.912 996.223 358.912C995.055 358.912 994.143 359.336 993.487 360.184C992.847 361.016 992.527 362.168 992.527 363.64C992.527 365.112 992.847 366.272 993.487 367.12C994.143 367.952 995.055 368.368 996.223 368.368ZM1005.43 370V357.28H1007.28L1007.35 360.52L1007.11 360.304C1007.27 359.552 1007.56 358.936 1007.97 358.456C1008.41 357.96 1008.92 357.592 1009.51 357.352C1010.1 357.112 1010.73 356.992 1011.38 356.992C1012.36 356.992 1013.17 357.208 1013.81 357.64C1014.46 358.072 1014.96 358.656 1015.29 359.392C1015.63 360.112 1015.8 360.92 1015.8 361.816V370H1013.78V362.392C1013.78 361.208 1013.55 360.312 1013.09 359.704C1012.62 359.08 1011.91 358.768 1010.95 358.768C1010.29 358.768 1009.7 358.912 1009.17 359.2C1008.65 359.472 1008.22 359.88 1007.9 360.424C1007.6 360.952 1007.45 361.608 1007.45 362.392V370H1005.43ZM1039.66 370.384C1038.46 370.384 1037.4 370.136 1036.47 369.64C1035.54 369.144 1034.8 368.464 1034.24 367.6C1033.68 366.72 1033.35 365.704 1033.25 364.552L1035.41 364.408C1035.52 365.256 1035.76 365.976 1036.13 366.568C1036.52 367.16 1037 367.608 1037.6 367.912C1038.2 368.216 1038.91 368.368 1039.71 368.368C1040.51 368.368 1041.18 368.272 1041.72 368.08C1042.27 367.872 1042.68 367.576 1042.95 367.192C1043.24 366.792 1043.38 366.32 1043.38 365.776C1043.38 365.232 1043.25 364.76 1043 364.36C1042.76 363.944 1042.29 363.56 1041.6 363.208C1040.93 362.856 1039.93 362.496 1038.6 362.128C1037.42 361.792 1036.46 361.424 1035.72 361.024C1035 360.624 1034.48 360.136 1034.14 359.56C1033.82 358.984 1033.66 358.272 1033.66 357.424C1033.66 356.464 1033.88 355.624 1034.33 354.904C1034.8 354.168 1035.45 353.6 1036.3 353.2C1037.15 352.784 1038.16 352.576 1039.32 352.576C1040.49 352.576 1041.49 352.816 1042.32 353.296C1043.16 353.76 1043.81 354.4 1044.29 355.216C1044.79 356.032 1045.1 356.96 1045.23 358L1043.07 358.144C1042.97 357.456 1042.77 356.848 1042.47 356.32C1042.16 355.776 1041.75 355.352 1041.22 355.048C1040.69 354.744 1040.04 354.592 1039.28 354.592C1038.22 354.592 1037.38 354.848 1036.76 355.36C1036.13 355.856 1035.82 356.512 1035.82 357.328C1035.82 357.856 1035.93 358.296 1036.16 358.648C1036.4 358.984 1036.81 359.288 1037.4 359.56C1038 359.816 1038.83 360.096 1039.9 360.4C1041.29 360.784 1042.4 361.216 1043.21 361.696C1044.04 362.176 1044.64 362.752 1044.99 363.424C1045.36 364.08 1045.54 364.88 1045.54 365.824C1045.54 366.72 1045.29 367.512 1044.8 368.2C1044.3 368.888 1043.61 369.424 1042.73 369.808C1041.85 370.192 1040.83 370.384 1039.66 370.384ZM1054 370.288C1052.8 370.288 1051.76 370.016 1050.88 369.472C1050.02 368.928 1049.35 368.16 1048.87 367.168C1048.4 366.16 1048.17 364.984 1048.17 363.64C1048.17 362.296 1048.4 361.128 1048.87 360.136C1049.35 359.144 1050.01 358.376 1050.86 357.832C1051.72 357.272 1052.74 356.992 1053.91 356.992C1055.01 356.992 1055.99 357.256 1056.83 357.784C1057.68 358.296 1058.35 359.048 1058.83 360.04C1059.31 361.032 1059.55 362.24 1059.55 363.664V364.264H1050.28C1050.36 365.624 1050.72 366.648 1051.36 367.336C1052.02 368.024 1052.9 368.368 1054 368.368C1054.83 368.368 1055.51 368.176 1056.04 367.792C1056.59 367.392 1056.96 366.872 1057.17 366.232L1059.33 366.4C1058.99 367.536 1058.35 368.472 1057.41 369.208C1056.48 369.928 1055.35 370.288 1054 370.288ZM1050.28 362.488H1057.34C1057.24 361.256 1056.88 360.352 1056.26 359.776C1055.63 359.2 1054.85 358.912 1053.91 358.912C1052.93 358.912 1052.12 359.216 1051.48 359.824C1050.86 360.416 1050.46 361.304 1050.28 362.488ZM1066.45 370V357.28H1068.13L1068.32 360.496L1068.13 360.448C1068.29 359.36 1068.63 358.56 1069.16 358.048C1069.7 357.536 1070.42 357.28 1071.32 357.28H1073.94V359.104H1071.34C1070.72 359.104 1070.19 359.232 1069.76 359.488C1069.34 359.728 1069.02 360.088 1068.8 360.568C1068.58 361.032 1068.46 361.616 1068.46 362.32V370H1066.45ZM1063.14 370V368.224H1072.5V370H1063.14ZM1063.14 359.056V357.28H1067.55V359.056H1063.14ZM1081.3 370L1076.57 357.28H1078.78L1082.57 367.936L1086.36 357.28H1088.57L1083.84 370H1081.3ZM1097.17 370.288C1095.97 370.288 1094.93 370.016 1094.05 369.472C1093.19 368.928 1092.52 368.16 1092.04 367.168C1091.57 366.16 1091.34 364.984 1091.34 363.64C1091.34 362.296 1091.57 361.128 1092.04 360.136C1092.52 359.144 1093.18 358.376 1094.03 357.832C1094.89 357.272 1095.91 356.992 1097.08 356.992C1098.18 356.992 1099.16 357.256 1100.01 357.784C1100.85 358.296 1101.52 359.048 1102 360.04C1102.48 361.032 1102.72 362.24 1102.72 363.664V364.264H1093.45C1093.53 365.624 1093.89 366.648 1094.53 367.336C1095.19 368.024 1096.07 368.368 1097.17 368.368C1098.01 368.368 1098.69 368.176 1099.21 367.792C1099.76 367.392 1100.13 366.872 1100.34 366.232L1102.5 366.4C1102.17 367.536 1101.53 368.472 1100.58 369.208C1099.65 369.928 1098.52 370.288 1097.17 370.288ZM1093.45 362.488H1100.51C1100.41 361.256 1100.05 360.352 1099.43 359.776C1098.81 359.2 1098.02 358.912 1097.08 358.912C1096.1 358.912 1095.29 359.216 1094.65 359.824C1094.03 360.416 1093.63 361.304 1093.45 362.488ZM1109.62 370V357.28H1111.3L1111.49 360.496L1111.3 360.448C1111.46 359.36 1111.8 358.56 1112.33 358.048C1112.88 357.536 1113.6 357.28 1114.49 357.28H1117.11V359.104H1114.52C1113.89 359.104 1113.36 359.232 1112.93 359.488C1112.52 359.728 1112.2 360.088 1111.97 360.568C1111.75 361.032 1111.64 361.616 1111.64 362.32V370H1109.62ZM1106.31 370V368.224H1115.67V370H1106.31ZM1106.31 359.056V357.28H1110.72V359.056H1106.31Z" fill="#E5E5E5"/>
<rect x="866" y="450" width="318" height="78" rx="19" stroke="#E5E5E5" stroke-width="2"/>
<path d="M912.035 498V480.96H916.067C917.539 480.96 918.819 481.296 919.907 481.968C921.011 482.624 921.859 483.592 922.451 484.872C923.059 486.136 923.363 487.68 923.363 489.504C923.363 491.328 923.059 492.872 922.451 494.136C921.859 495.4 921.011 496.36 919.907 497.016C918.819 497.672 917.539 498 916.067 498H912.035ZM914.099 495.984H915.947C917.611 495.984 918.899 495.448 919.811 494.376C920.739 493.288 921.203 491.664 921.203 489.504C921.203 487.344 920.739 485.72 919.811 484.632C918.899 483.528 917.611 482.976 915.947 482.976H914.099V495.984ZM931.682 498.288C930.482 498.288 929.442 498.016 928.562 497.472C927.698 496.928 927.026 496.16 926.546 495.168C926.082 494.16 925.85 492.984 925.85 491.64C925.85 490.296 926.082 489.128 926.546 488.136C927.026 487.144 927.69 486.376 928.538 485.832C929.402 485.272 930.418 484.992 931.586 484.992C932.69 484.992 933.666 485.256 934.514 485.784C935.362 486.296 936.026 487.048 936.506 488.04C936.986 489.032 937.226 490.24 937.226 491.664V492.264H927.962C928.042 493.624 928.402 494.648 929.042 495.336C929.698 496.024 930.578 496.368 931.682 496.368C932.514 496.368 933.194 496.176 933.722 495.792C934.266 495.392 934.642 494.872 934.85 494.232L937.01 494.4C936.674 495.536 936.034 496.472 935.09 497.208C934.162 497.928 933.026 498.288 931.682 498.288ZM927.962 490.488H935.018C934.922 489.256 934.562 488.352 933.938 487.776C933.314 487.2 932.53 486.912 931.586 486.912C930.61 486.912 929.802 487.216 929.162 487.824C928.538 488.416 928.138 489.304 927.962 490.488ZM940.672 498V485.28H942.52L942.592 488.52L942.352 488.304C942.512 487.552 942.8 486.936 943.216 486.456C943.648 485.96 944.16 485.592 944.752 485.352C945.344 485.112 945.968 484.992 946.624 484.992C947.6 484.992 948.408 485.208 949.048 485.64C949.704 486.072 950.2 486.656 950.536 487.392C950.872 488.112 951.04 488.92 951.04 489.816V498H949.024V490.392C949.024 489.208 948.792 488.312 948.328 487.704C947.864 487.08 947.152 486.768 946.192 486.768C945.536 486.768 944.944 486.912 944.416 487.2C943.888 487.472 943.464 487.88 943.144 488.424C942.84 488.952 942.688 489.608 942.688 490.392V498H940.672ZM960.487 498.288C959.383 498.288 958.431 498.096 957.631 497.712C956.831 497.328 956.199 496.816 955.735 496.176C955.287 495.52 955.031 494.792 954.967 493.992L957.079 493.848C957.207 494.632 957.551 495.248 958.111 495.696C958.687 496.144 959.479 496.368 960.487 496.368C961.431 496.368 962.159 496.232 962.671 495.96C963.199 495.688 963.463 495.264 963.463 494.688C963.463 494.32 963.375 494.016 963.199 493.776C963.023 493.536 962.695 493.336 962.215 493.176C961.735 493 961.031 492.832 960.103 492.672C958.871 492.448 957.903 492.176 957.199 491.856C956.511 491.52 956.023 491.104 955.735 490.608C955.447 490.112 955.303 489.52 955.303 488.832C955.303 488.096 955.487 487.44 955.855 486.864C956.223 486.288 956.767 485.832 957.487 485.496C958.207 485.16 959.087 484.992 960.127 484.992C961.183 484.992 962.063 485.184 962.767 485.568C963.487 485.936 964.055 486.432 964.471 487.056C964.887 487.664 965.159 488.336 965.287 489.072L963.175 489.216C963.079 488.768 962.895 488.376 962.623 488.04C962.367 487.688 962.023 487.416 961.591 487.224C961.175 487.016 960.679 486.912 960.103 486.912C959.175 486.912 958.487 487.096 958.039 487.464C957.591 487.832 957.367 488.288 957.367 488.832C957.367 489.264 957.471 489.608 957.679 489.864C957.887 490.12 958.223 490.328 958.687 490.488C959.151 490.632 959.767 490.768 960.535 490.896C961.847 491.104 962.863 491.376 963.583 491.712C964.303 492.032 964.807 492.432 965.095 492.912C965.383 493.392 965.527 493.984 965.527 494.688C965.527 495.44 965.303 496.088 964.855 496.632C964.423 497.16 963.823 497.568 963.055 497.856C962.303 498.144 961.447 498.288 960.487 498.288ZM974.854 498.288C973.654 498.288 972.614 498.016 971.734 497.472C970.87 496.928 970.198 496.16 969.718 495.168C969.254 494.16 969.021 492.984 969.021 491.64C969.021 490.296 969.254 489.128 969.718 488.136C970.198 487.144 970.862 486.376 971.71 485.832C972.574 485.272 973.59 484.992 974.758 484.992C975.862 484.992 976.838 485.256 977.686 485.784C978.534 486.296 979.198 487.048 979.678 488.04C980.158 489.032 980.398 490.24 980.398 491.664V492.264H971.134C971.214 493.624 971.574 494.648 972.214 495.336C972.87 496.024 973.75 496.368 974.854 496.368C975.686 496.368 976.366 496.176 976.894 495.792C977.438 495.392 977.814 494.872 978.022 494.232L980.182 494.4C979.846 495.536 979.206 496.472 978.262 497.208C977.334 497.928 976.198 498.288 974.854 498.288ZM971.134 490.488H978.19C978.094 489.256 977.734 488.352 977.11 487.776C976.486 487.2 975.702 486.912 974.758 486.912C973.782 486.912 972.974 487.216 972.334 487.824C971.71 488.416 971.31 489.304 971.134 490.488ZM1002.07 498L996.939 480.96H999.147L1003.71 496.656H1003.13L1007.69 480.96H1009.9L1004.76 498H1002.07ZM1018.03 498.288C1016.83 498.288 1015.79 498.016 1014.91 497.472C1014.04 496.928 1013.37 496.16 1012.89 495.168C1012.43 494.16 1012.19 492.984 1012.19 491.64C1012.19 490.296 1012.43 489.128 1012.89 488.136C1013.37 487.144 1014.03 486.376 1014.88 485.832C1015.75 485.272 1016.76 484.992 1017.93 484.992C1019.03 484.992 1020.01 485.256 1020.86 485.784C1021.71 486.296 1022.37 487.048 1022.85 488.04C1023.33 489.032 1023.57 490.24 1023.57 491.664V492.264H1014.31C1014.39 493.624 1014.75 494.648 1015.39 495.336C1016.04 496.024 1016.92 496.368 1018.03 496.368C1018.86 496.368 1019.54 496.176 1020.07 495.792C1020.61 495.392 1020.99 494.872 1021.19 494.232L1023.35 494.4C1023.02 495.536 1022.38 496.472 1021.43 497.208C1020.51 497.928 1019.37 498.288 1018.03 498.288ZM1014.31 490.488H1021.36C1021.27 489.256 1020.91 488.352 1020.28 487.776C1019.66 487.2 1018.87 486.912 1017.93 486.912C1016.95 486.912 1016.15 487.216 1015.51 487.824C1014.88 488.416 1014.48 489.304 1014.31 490.488ZM1032.54 498.288C1031.35 498.288 1030.32 498.016 1029.44 497.472C1028.56 496.928 1027.88 496.16 1027.4 495.168C1026.92 494.16 1026.68 492.984 1026.68 491.64C1026.68 490.296 1026.92 489.128 1027.4 488.136C1027.88 487.144 1028.56 486.376 1029.44 485.832C1030.32 485.272 1031.35 484.992 1032.54 484.992C1033.48 484.992 1034.32 485.168 1035.06 485.52C1035.79 485.856 1036.4 486.352 1036.88 487.008C1037.36 487.664 1037.69 488.464 1037.86 489.408L1035.75 489.552C1035.56 488.704 1035.18 488.056 1034.6 487.608C1034.04 487.144 1033.35 486.912 1032.54 486.912C1031.37 486.912 1030.45 487.336 1029.78 488.184C1029.12 489.016 1028.79 490.168 1028.79 491.64C1028.79 493.112 1029.12 494.272 1029.78 495.12C1030.45 495.952 1031.37 496.368 1032.54 496.368C1033.35 496.368 1034.06 496.128 1034.65 495.648C1035.26 495.168 1035.66 494.448 1035.85 493.488L1037.96 493.632C1037.78 494.576 1037.45 495.4 1036.95 496.104C1036.46 496.792 1035.83 497.328 1035.08 497.712C1034.33 498.096 1033.48 498.288 1032.54 498.288ZM1048.46 498C1047.23 498 1046.31 497.712 1045.7 497.136C1045.09 496.56 1044.79 495.68 1044.79 494.496V482.304H1046.81V494.496C1046.81 495.088 1046.94 495.528 1047.21 495.816C1047.49 496.088 1047.9 496.224 1048.46 496.224H1051.87V498H1048.46ZM1040.59 487.056V485.28H1051.87V487.056H1040.59ZM1060.98 498.288C1059.81 498.288 1058.79 498.016 1057.91 497.472C1057.05 496.928 1056.37 496.16 1055.89 495.168C1055.41 494.16 1055.17 492.984 1055.17 491.64C1055.17 490.28 1055.41 489.104 1055.89 488.112C1056.37 487.12 1057.05 486.352 1057.91 485.808C1058.79 485.264 1059.81 484.992 1060.98 484.992C1062.15 484.992 1063.17 485.264 1064.03 485.808C1064.91 486.352 1065.59 487.12 1066.07 488.112C1066.55 489.104 1066.79 490.28 1066.79 491.64C1066.79 492.984 1066.55 494.16 1066.07 495.168C1065.59 496.16 1064.91 496.928 1064.03 497.472C1063.17 498.016 1062.15 498.288 1060.98 498.288ZM1060.98 496.368C1062.15 496.368 1063.05 495.952 1063.69 495.12C1064.35 494.272 1064.68 493.112 1064.68 491.64C1064.68 490.168 1064.35 489.016 1063.69 488.184C1063.05 487.336 1062.15 486.912 1060.98 486.912C1059.81 486.912 1058.9 487.336 1058.25 488.184C1057.61 489.016 1057.29 490.168 1057.29 491.64C1057.29 493.112 1057.61 494.272 1058.25 495.12C1058.9 495.952 1059.81 496.368 1060.98 496.368ZM1073.64 498V485.28H1075.32L1075.52 488.496L1075.32 488.448C1075.48 487.36 1075.83 486.56 1076.36 486.048C1076.9 485.536 1077.62 485.28 1078.52 485.28H1081.13V487.104H1078.54C1077.92 487.104 1077.39 487.232 1076.96 487.488C1076.54 487.728 1076.22 488.088 1076 488.568C1075.77 489.032 1075.66 489.616 1075.66 490.32V498H1073.64ZM1070.33 498V496.224H1079.69V498H1070.33ZM1070.33 487.056V485.28H1074.75V487.056H1070.33ZM1104.11 498.384C1102.91 498.384 1101.83 498.056 1100.89 497.4C1099.96 496.728 1099.23 495.736 1098.68 494.424C1098.14 493.096 1097.87 491.456 1097.87 489.504C1097.87 487.664 1098.11 486.08 1098.61 484.752C1099.12 483.424 1099.85 482.4 1100.79 481.68C1101.74 480.944 1102.87 480.576 1104.2 480.576C1105.24 480.576 1106.16 480.808 1106.96 481.272C1107.78 481.736 1108.46 482.384 1109 483.216C1109.55 484.032 1109.94 484.976 1110.18 486.048L1108.02 486.192C1107.75 485.136 1107.29 484.272 1106.65 483.6C1106.03 482.928 1105.21 482.592 1104.2 482.592C1103.32 482.592 1102.57 482.864 1101.95 483.408C1101.32 483.936 1100.84 484.72 1100.51 485.76C1100.19 486.784 1100.03 488.032 1100.03 489.504C1100.03 490.96 1100.19 492.2 1100.53 493.224C1100.87 494.248 1101.35 495.032 1101.97 495.576C1102.61 496.104 1103.39 496.368 1104.3 496.368C1105.11 496.368 1105.81 496.16 1106.39 495.744C1106.98 495.312 1107.44 494.72 1107.78 493.968C1108.11 493.2 1108.3 492.328 1108.33 491.352H1104.25V489.384H1110.25V498H1108.33L1108.23 493.968L1108.81 494.16C1108.59 494.976 1108.27 495.704 1107.87 496.344C1107.49 496.984 1106.99 497.488 1106.36 497.856C1105.75 498.208 1105 498.384 1104.11 498.384ZM1118.76 498.288C1117.56 498.288 1116.52 498.016 1115.64 497.472C1114.78 496.928 1114.1 496.16 1113.62 495.168C1113.16 494.16 1112.93 492.984 1112.93 491.64C1112.93 490.296 1113.16 489.128 1113.62 488.136C1114.1 487.144 1114.77 486.376 1115.62 485.832C1116.48 485.272 1117.5 484.992 1118.66 484.992C1119.77 484.992 1120.74 485.256 1121.59 485.784C1122.44 486.296 1123.1 487.048 1123.58 488.04C1124.06 489.032 1124.3 490.24 1124.3 491.664V492.264H1115.04C1115.12 493.624 1115.48 494.648 1116.12 495.336C1116.78 496.024 1117.66 496.368 1118.76 496.368C1119.59 496.368 1120.27 496.176 1120.8 495.792C1121.34 495.392 1121.72 494.872 1121.93 494.232L1124.09 494.4C1123.75 495.536 1123.11 496.472 1122.17 497.208C1121.24 497.928 1120.1 498.288 1118.76 498.288ZM1115.04 490.488H1122.1C1122 489.256 1121.64 488.352 1121.02 487.776C1120.39 487.2 1119.61 486.912 1118.66 486.912C1117.69 486.912 1116.88 487.216 1116.24 487.824C1115.62 488.416 1115.22 489.304 1115.04 490.488ZM1127.75 498V485.28H1129.6L1129.67 488.52L1129.43 488.304C1129.59 487.552 1129.88 486.936 1130.29 486.456C1130.73 485.96 1131.24 485.592 1131.83 485.352C1132.42 485.112 1133.05 484.992 1133.7 484.992C1134.68 484.992 1135.49 485.208 1136.13 485.64C1136.78 486.072 1137.28 486.656 1137.61 487.392C1137.95 488.112 1138.12 488.92 1138.12 489.816V498H1136.1V490.392C1136.1 489.208 1135.87 488.312 1135.41 487.704C1134.94 487.08 1134.23 486.768 1133.27 486.768C1132.61 486.768 1132.02 486.912 1131.49 487.2C1130.97 487.472 1130.54 487.88 1130.22 488.424C1129.92 488.952 1129.77 489.608 1129.77 490.392V498H1127.75Z" fill="#E5E5E5"/>
<rect x="866" y="578" width="318" height="78" rx="19" stroke="#E5E5E5" stroke-width="2"/>
<path d="M933.621 626V608.96H937.653C939.125 608.96 940.405 609.296 941.493 609.968C942.597 610.624 943.445 611.592 944.037 612.872C944.645 614.136 944.949 615.68 944.949 617.504C944.949 619.328 944.645 620.872 944.037 622.136C943.445 623.4 942.597 624.36 941.493 625.016C940.405 625.672 939.125 626 937.653 626H933.621ZM935.685 623.984H937.533C939.197 623.984 940.485 623.448 941.397 622.376C942.325 621.288 942.789 619.664 942.789 617.504C942.789 615.344 942.325 613.72 941.397 612.632C940.485 611.528 939.197 610.976 937.533 610.976H935.685V623.984ZM952.884 626V613.28H954.9V626H952.884ZM947.772 626V624.224H959.292V626H947.772ZM948.012 615.056V613.28H954.9V615.056H948.012ZM952.692 611.288V608.936H954.804V611.288H952.692ZM961.202 626V613.28H963.05L963.122 616.112L962.882 616.064C963.026 615.12 963.33 614.376 963.794 613.832C964.274 613.272 964.882 612.992 965.618 612.992C966.37 612.992 966.946 613.264 967.346 613.808C967.762 614.352 968.018 615.152 968.114 616.208H967.874C968.018 615.216 968.338 614.432 968.834 613.856C969.346 613.28 969.986 612.992 970.754 612.992C971.778 612.992 972.522 613.344 972.986 614.048C973.45 614.752 973.682 615.92 973.682 617.552V626H971.666V617.84C971.666 616.704 971.546 615.912 971.306 615.464C971.066 615 970.69 614.768 970.178 614.768C969.842 614.768 969.546 614.88 969.29 615.104C969.034 615.312 968.826 615.648 968.666 616.112C968.522 616.576 968.45 617.168 968.45 617.888V626H966.434V617.84C966.434 616.752 966.314 615.968 966.074 615.488C965.85 615.008 965.474 614.768 964.946 614.768C964.61 614.768 964.314 614.88 964.058 615.104C963.802 615.312 963.594 615.648 963.434 616.112C963.29 616.576 963.218 617.168 963.218 617.888V626H961.202ZM990.703 626V608.96H995.887C997.679 608.96 999.095 609.416 1000.14 610.328C1001.18 611.224 1001.7 612.464 1001.7 614.048C1001.7 614.848 1001.51 615.56 1001.14 616.184C1000.78 616.792 1000.3 617.272 999.727 617.624C999.151 617.976 998.559 618.176 997.951 618.224L997.855 617.936C998.991 618 999.839 618.272 1000.4 618.752C1000.98 619.232 1001.31 620.016 1001.41 621.104L1001.84 626H999.775L999.367 621.368C999.319 620.84 999.191 620.416 998.983 620.096C998.791 619.76 998.479 619.52 998.047 619.376C997.631 619.216 997.055 619.136 996.319 619.136H992.767V626H990.703ZM992.767 617.12H995.887C997.071 617.12 997.975 616.856 998.599 616.328C999.223 615.784 999.535 615.024 999.535 614.048C999.535 613.056 999.223 612.296 998.599 611.768C997.975 611.24 997.071 610.976 995.887 610.976H992.767V617.12ZM1010.83 626.288C1009.63 626.288 1008.59 626.016 1007.71 625.472C1006.85 624.928 1006.17 624.16 1005.69 623.168C1005.23 622.16 1005 620.984 1005 619.64C1005 618.296 1005.23 617.128 1005.69 616.136C1006.17 615.144 1006.84 614.376 1007.69 613.832C1008.55 613.272 1009.57 612.992 1010.73 612.992C1011.84 612.992 1012.81 613.256 1013.66 613.784C1014.51 614.296 1015.17 615.048 1015.65 616.04C1016.13 617.032 1016.37 618.24 1016.37 619.664V620.264H1007.11C1007.19 621.624 1007.55 622.648 1008.19 623.336C1008.85 624.024 1009.73 624.368 1010.83 624.368C1011.66 624.368 1012.34 624.176 1012.87 623.792C1013.41 623.392 1013.79 622.872 1014 622.232L1016.16 622.4C1015.82 623.536 1015.18 624.472 1014.24 625.208C1013.31 625.928 1012.17 626.288 1010.83 626.288ZM1007.11 618.488H1014.17C1014.07 617.256 1013.71 616.352 1013.09 615.776C1012.46 615.2 1011.68 614.912 1010.73 614.912C1009.76 614.912 1008.95 615.216 1008.31 615.824C1007.69 616.416 1007.29 617.304 1007.11 618.488ZM1024.21 626.288C1023.09 626.288 1022.12 626.016 1021.31 625.472C1020.49 624.928 1019.86 624.16 1019.41 623.168C1018.98 622.176 1018.76 621 1018.76 619.64C1018.76 618.28 1018.98 617.104 1019.41 616.112C1019.86 615.12 1020.49 614.352 1021.31 613.808C1022.12 613.264 1023.09 612.992 1024.21 612.992C1025.11 612.992 1025.89 613.208 1026.56 613.64C1027.24 614.056 1027.72 614.528 1028.03 615.056V608.96H1030.04V626H1028.22L1028.15 624.08C1027.8 624.768 1027.28 625.312 1026.59 625.712C1025.9 626.096 1025.11 626.288 1024.21 626.288ZM1024.33 624.368C1025.1 624.368 1025.76 624.176 1026.3 623.792C1026.86 623.408 1027.28 622.864 1027.57 622.16C1027.88 621.44 1028.03 620.6 1028.03 619.64C1028.03 618.648 1027.88 617.8 1027.57 617.096C1027.28 616.392 1026.86 615.856 1026.3 615.488C1025.74 615.104 1025.07 614.912 1024.28 614.912C1023.24 614.912 1022.41 615.336 1021.79 616.184C1021.18 617.016 1020.88 618.168 1020.88 619.64C1020.88 621.096 1021.18 622.248 1021.79 623.096C1022.41 623.944 1023.26 624.368 1024.33 624.368ZM1038.51 626.288C1037.24 626.288 1036.24 625.864 1035.48 625.016C1034.73 624.152 1034.36 622.968 1034.36 621.464V613.28H1036.37V620.912C1036.37 622.144 1036.59 623.056 1037.02 623.648C1037.47 624.224 1038.15 624.512 1039.06 624.512C1040.05 624.512 1040.84 624.192 1041.41 623.552C1041.99 622.896 1042.28 622 1042.28 620.864V613.28H1044.29V626H1042.37V622.856L1042.68 623.024C1042.43 624.064 1041.94 624.872 1041.22 625.448C1040.5 626.008 1039.6 626.288 1038.51 626.288ZM1054.12 626.288C1052.94 626.288 1051.91 626.016 1051.03 625.472C1050.15 624.928 1049.47 624.16 1048.99 623.168C1048.51 622.16 1048.27 620.984 1048.27 619.64C1048.27 618.296 1048.51 617.128 1048.99 616.136C1049.47 615.144 1050.15 614.376 1051.03 613.832C1051.91 613.272 1052.94 612.992 1054.12 612.992C1055.07 612.992 1055.91 613.168 1056.64 613.52C1057.38 613.856 1057.99 614.352 1058.47 615.008C1058.95 615.664 1059.27 616.464 1059.45 617.408L1057.34 617.552C1057.15 616.704 1056.76 616.056 1056.19 615.608C1055.63 615.144 1054.94 614.912 1054.12 614.912C1052.95 614.912 1052.03 615.336 1051.36 616.184C1050.71 617.016 1050.38 618.168 1050.38 619.64C1050.38 621.112 1050.71 622.272 1051.36 623.12C1052.03 623.952 1052.95 624.368 1054.12 624.368C1054.94 624.368 1055.64 624.128 1056.23 623.648C1056.84 623.168 1057.24 622.448 1057.43 621.488L1059.55 621.632C1059.37 622.576 1059.03 623.4 1058.54 624.104C1058.04 624.792 1057.42 625.328 1056.67 625.712C1055.91 626.096 1055.07 626.288 1054.12 626.288ZM1070.05 626C1068.82 626 1067.9 625.712 1067.29 625.136C1066.68 624.56 1066.38 623.68 1066.38 622.496V610.304H1068.39V622.496C1068.39 623.088 1068.53 623.528 1068.8 623.816C1069.07 624.088 1069.49 624.224 1070.05 624.224H1073.46V626H1070.05ZM1062.18 615.056V613.28H1073.46V615.056H1062.18ZM1082.4 626V613.28H1084.42V626H1082.4ZM1077.29 626V624.224H1088.81V626H1077.29ZM1077.53 615.056V613.28H1084.42V615.056H1077.53ZM1082.21 611.288V608.936H1084.32V611.288H1082.21ZM1096.96 626.288C1095.79 626.288 1094.77 626.016 1093.89 625.472C1093.02 624.928 1092.35 624.16 1091.87 623.168C1091.39 622.16 1091.15 620.984 1091.15 619.64C1091.15 618.28 1091.39 617.104 1091.87 616.112C1092.35 615.12 1093.02 614.352 1093.89 613.808C1094.77 613.264 1095.79 612.992 1096.96 612.992C1098.13 612.992 1099.14 613.264 1100.01 613.808C1100.89 614.352 1101.57 615.12 1102.05 616.112C1102.53 617.104 1102.77 618.28 1102.77 619.64C1102.77 620.984 1102.53 622.16 1102.05 623.168C1101.57 624.16 1100.89 624.928 1100.01 625.472C1099.14 626.016 1098.13 626.288 1096.96 626.288ZM1096.96 624.368C1098.13 624.368 1099.03 623.952 1099.67 623.12C1100.33 622.272 1100.65 621.112 1100.65 619.64C1100.65 618.168 1100.33 617.016 1099.67 616.184C1099.03 615.336 1098.13 614.912 1096.96 614.912C1095.79 614.912 1094.88 615.336 1094.22 616.184C1093.58 617.016 1093.26 618.168 1093.26 619.64C1093.26 621.112 1093.58 622.272 1094.22 623.12C1094.88 623.952 1095.79 624.368 1096.96 624.368ZM1106.16 626V613.28H1108.01L1108.08 616.52L1107.84 616.304C1108 615.552 1108.29 614.936 1108.71 614.456C1109.14 613.96 1109.65 613.592 1110.24 613.352C1110.84 613.112 1111.46 612.992 1112.12 612.992C1113.09 612.992 1113.9 613.208 1114.54 613.64C1115.2 614.072 1115.69 614.656 1116.03 615.392C1116.36 616.112 1116.53 616.92 1116.53 617.816V626H1114.52V618.392C1114.52 617.208 1114.28 616.312 1113.82 615.704C1113.36 615.08 1112.64 614.768 1111.68 614.768C1111.03 614.768 1110.44 614.912 1109.91 615.2C1109.38 615.472 1108.96 615.88 1108.64 616.424C1108.33 616.952 1108.18 617.608 1108.18 618.392V626H1106.16Z" fill="#E5E5E5"/>
<rect x="369" y="257" width="318" height="78" rx="19" stroke="#E5E5E5" stroke-width="2"/>
<path d="M428.946 305V287.96H434.13C435.922 287.96 437.338 288.416 438.378 289.328C439.418 290.224 439.938 291.464 439.938 293.048C439.938 293.848 439.754 294.56 439.386 295.184C439.018 295.792 438.546 296.272 437.97 296.624C437.394 296.976 436.802 297.176 436.194 297.224L436.098 296.936C437.234 297 438.082 297.272 438.642 297.752C439.218 298.232 439.554 299.016 439.65 300.104L440.082 305H438.018L437.61 300.368C437.562 299.84 437.434 299.416 437.226 299.096C437.034 298.76 436.722 298.52 436.29 298.376C435.874 298.216 435.298 298.136 434.562 298.136H431.01V305H428.946ZM431.01 296.12H434.13C435.314 296.12 436.218 295.856 436.842 295.328C437.466 294.784 437.778 294.024 437.778 293.048C437.778 292.056 437.466 291.296 436.842 290.768C436.218 290.24 435.314 289.976 434.13 289.976H431.01V296.12ZM449.072 305.288C447.872 305.288 446.832 305.016 445.952 304.472C445.088 303.928 444.416 303.16 443.936 302.168C443.472 301.16 443.24 299.984 443.24 298.64C443.24 297.296 443.472 296.128 443.936 295.136C444.416 294.144 445.08 293.376 445.928 292.832C446.792 292.272 447.808 291.992 448.976 291.992C450.08 291.992 451.056 292.256 451.904 292.784C452.752 293.296 453.416 294.048 453.896 295.04C454.376 296.032 454.616 297.24 454.616 298.664V299.264H445.352C445.432 300.624 445.792 301.648 446.432 302.336C447.088 303.024 447.968 303.368 449.072 303.368C449.904 303.368 450.584 303.176 451.112 302.792C451.656 302.392 452.032 301.872 452.24 301.232L454.4 301.4C454.064 302.536 453.424 303.472 452.48 304.208C451.552 304.928 450.416 305.288 449.072 305.288ZM445.352 297.488H452.408C452.312 296.256 451.952 295.352 451.328 294.776C450.704 294.2 449.92 293.912 448.976 293.912C448 293.912 447.192 294.216 446.552 294.824C445.928 295.416 445.528 296.304 445.352 297.488ZM461.567 305.288C460.767 305.288 460.047 305.144 459.407 304.856C458.767 304.568 458.263 304.168 457.895 303.656C457.527 303.128 457.343 302.52 457.343 301.832C457.343 300.744 457.663 299.904 458.303 299.312C458.959 298.704 459.983 298.264 461.375 297.992L465.647 297.128C465.647 296.04 465.399 295.232 464.903 294.704C464.423 294.176 463.727 293.912 462.815 293.912C461.935 293.912 461.247 294.112 460.751 294.512C460.255 294.896 459.911 295.456 459.719 296.192L457.583 296.024C457.823 294.824 458.391 293.856 459.287 293.12C460.199 292.368 461.375 291.992 462.815 291.992C464.351 291.992 465.543 292.456 466.391 293.384C467.239 294.296 467.663 295.56 467.663 297.176V302.456C467.663 302.744 467.727 302.944 467.855 303.056C467.983 303.168 468.175 303.224 468.431 303.224H469.247V305C469.151 305.016 468.999 305.024 468.791 305.024C468.583 305.04 468.383 305.048 468.191 305.048C467.647 305.048 467.183 304.96 466.799 304.784C466.431 304.608 466.151 304.328 465.959 303.944C465.767 303.544 465.663 303.032 465.647 302.408H466.031C465.919 302.952 465.647 303.448 465.215 303.896C464.799 304.328 464.271 304.672 463.631 304.928C462.991 305.168 462.303 305.288 461.567 305.288ZM461.759 303.512C462.623 303.512 463.343 303.368 463.919 303.08C464.495 302.776 464.927 302.36 465.215 301.832C465.503 301.288 465.647 300.664 465.647 299.96V298.856L461.759 299.624C460.895 299.784 460.295 300.032 459.959 300.368C459.623 300.688 459.455 301.112 459.455 301.64C459.455 302.232 459.655 302.696 460.055 303.032C460.471 303.352 461.039 303.512 461.759 303.512ZM477.974 305.288C476.79 305.288 475.758 305.016 474.878 304.472C473.998 303.928 473.318 303.16 472.838 302.168C472.358 301.16 472.118 299.984 472.118 298.64C472.118 297.296 472.358 296.128 472.838 295.136C473.318 294.144 473.998 293.376 474.878 292.832C475.758 292.272 476.79 291.992 477.974 291.992C478.918 291.992 479.758 292.168 480.494 292.52C481.23 292.856 481.838 293.352 482.318 294.008C482.798 294.664 483.126 295.464 483.302 296.408L481.19 296.552C480.998 295.704 480.614 295.056 480.038 294.608C479.478 294.144 478.79 293.912 477.974 293.912C476.806 293.912 475.886 294.336 475.214 295.184C474.558 296.016 474.23 297.168 474.23 298.64C474.23 300.112 474.558 301.272 475.214 302.12C475.886 302.952 476.806 303.368 477.974 303.368C478.79 303.368 479.494 303.128 480.086 302.648C480.694 302.168 481.094 301.448 481.286 300.488L483.398 300.632C483.222 301.576 482.886 302.4 482.39 303.104C481.894 303.792 481.27 304.328 480.518 304.712C479.766 305.096 478.918 305.288 477.974 305.288ZM493.9 305C492.668 305 491.748 304.712 491.14 304.136C490.532 303.56 490.228 302.68 490.228 301.496V289.304H492.244V301.496C492.244 302.088 492.38 302.528 492.652 302.816C492.924 303.088 493.34 303.224 493.9 303.224H497.308V305H493.9ZM486.028 294.056V292.28H497.308V294.056H486.028ZM516.009 305V287.96H526.569V289.928H517.017L518.073 288.92V296.744L517.017 295.688H526.137V297.656H517.017L518.073 296.6V305H516.009ZM533.472 305V292.28H535.152L535.344 295.496L535.152 295.448C535.312 294.36 535.656 293.56 536.184 293.048C536.728 292.536 537.448 292.28 538.344 292.28H540.96V294.104H538.368C537.744 294.104 537.216 294.232 536.784 294.488C536.368 294.728 536.048 295.088 535.824 295.568C535.6 296.032 535.488 296.616 535.488 297.32V305H533.472ZM530.16 305V303.224H539.52V305H530.16ZM530.16 294.056V292.28H534.576V294.056H530.16ZM549.591 305.288C548.423 305.288 547.399 305.016 546.519 304.472C545.655 303.928 544.983 303.16 544.503 302.168C544.023 301.16 543.783 299.984 543.783 298.64C543.783 297.28 544.023 296.104 544.503 295.112C544.983 294.12 545.655 293.352 546.519 292.808C547.399 292.264 548.423 291.992 549.591 291.992C550.759 291.992 551.775 292.264 552.639 292.808C553.519 293.352 554.199 294.12 554.679 295.112C555.159 296.104 555.399 297.28 555.399 298.64C555.399 299.984 555.159 301.16 554.679 302.168C554.199 303.16 553.519 303.928 552.639 304.472C551.775 305.016 550.759 305.288 549.591 305.288ZM549.591 303.368C550.759 303.368 551.663 302.952 552.303 302.12C552.959 301.272 553.287 300.112 553.287 298.64C553.287 297.168 552.959 296.016 552.303 295.184C551.663 294.336 550.759 293.912 549.591 293.912C548.423 293.912 547.511 294.336 546.855 295.184C546.215 296.016 545.895 297.168 545.895 298.64C545.895 300.112 546.215 301.272 546.855 302.12C547.511 302.952 548.423 303.368 549.591 303.368ZM558.797 305V292.28H560.645L560.717 295.52L560.477 295.304C560.637 294.552 560.925 293.936 561.341 293.456C561.773 292.96 562.285 292.592 562.877 292.352C563.469 292.112 564.093 291.992 564.749 291.992C565.725 291.992 566.533 292.208 567.173 292.64C567.829 293.072 568.325 293.656 568.661 294.392C568.997 295.112 569.165 295.92 569.165 296.816V305H567.149V297.392C567.149 296.208 566.917 295.312 566.453 294.704C565.989 294.08 565.277 293.768 564.317 293.768C563.661 293.768 563.069 293.912 562.541 294.2C562.013 294.472 561.589 294.88 561.269 295.424C560.965 295.952 560.813 296.608 560.813 297.392V305H558.797ZM580.244 305C579.012 305 578.092 304.712 577.484 304.136C576.876 303.56 576.572 302.68 576.572 301.496V289.304H578.588V301.496C578.588 302.088 578.724 302.528 578.996 302.816C579.268 303.088 579.684 303.224 580.244 303.224H583.652V305H580.244ZM572.372 294.056V292.28H583.652V294.056H572.372ZM592.979 305.288C591.779 305.288 590.739 305.016 589.859 304.472C588.995 303.928 588.323 303.16 587.843 302.168C587.379 301.16 587.146 299.984 587.146 298.64C587.146 297.296 587.379 296.128 587.843 295.136C588.323 294.144 588.987 293.376 589.835 292.832C590.699 292.272 591.715 291.992 592.883 291.992C593.987 291.992 594.963 292.256 595.811 292.784C596.659 293.296 597.323 294.048 597.803 295.04C598.283 296.032 598.523 297.24 598.523 298.664V299.264H589.259C589.339 300.624 589.699 301.648 590.339 302.336C590.995 303.024 591.875 303.368 592.979 303.368C593.811 303.368 594.491 303.176 595.019 302.792C595.563 302.392 595.939 301.872 596.147 301.232L598.307 301.4C597.971 302.536 597.331 303.472 596.387 304.208C595.459 304.928 594.323 305.288 592.979 305.288ZM589.259 297.488H596.315C596.219 296.256 595.859 295.352 595.235 294.776C594.611 294.2 593.827 293.912 592.883 293.912C591.907 293.912 591.099 294.216 590.459 294.824C589.835 295.416 589.435 296.304 589.259 297.488ZM601.969 305V292.28H603.817L603.889 295.52L603.649 295.304C603.809 294.552 604.097 293.936 604.513 293.456C604.945 292.96 605.457 292.592 606.049 292.352C606.641 292.112 607.265 291.992 607.921 291.992C608.897 291.992 609.705 292.208 610.345 292.64C611.001 293.072 611.497 293.656 611.833 294.392C612.169 295.112 612.337 295.92 612.337 296.816V305H610.321V297.392C610.321 296.208 610.089 295.312 609.625 294.704C609.161 294.08 608.449 293.768 607.489 293.768C606.833 293.768 606.241 293.912 605.713 294.2C605.185 294.472 604.761 294.88 604.441 295.424C604.137 295.952 603.985 296.608 603.985 297.392V305H601.969ZM620.752 305.288C619.632 305.288 618.664 305.016 617.848 304.472C617.032 303.928 616.4 303.16 615.952 302.168C615.52 301.176 615.304 300 615.304 298.64C615.304 297.28 615.52 296.104 615.952 295.112C616.4 294.12 617.032 293.352 617.848 292.808C618.664 292.264 619.632 291.992 620.752 291.992C621.648 291.992 622.432 292.208 623.104 292.64C623.776 293.056 624.264 293.528 624.568 294.056V287.96H626.584V305H624.76L624.688 303.08C624.336 303.768 623.816 304.312 623.128 304.712C622.44 305.096 621.648 305.288 620.752 305.288ZM620.872 303.368C621.64 303.368 622.296 303.176 622.84 302.792C623.4 302.408 623.824 301.864 624.112 301.16C624.416 300.44 624.568 299.6 624.568 298.64C624.568 297.648 624.416 296.8 624.112 296.096C623.824 295.392 623.4 294.856 622.84 294.488C622.28 294.104 621.608 293.912 620.824 293.912C619.784 293.912 618.952 294.336 618.328 295.184C617.72 296.016 617.416 297.168 617.416 298.64C617.416 300.096 617.72 301.248 618.328 302.096C618.952 302.944 619.8 303.368 620.872 303.368Z" fill="#E5E5E5"/>
<rect x="1" y="129" width="318" height="78" rx="19" stroke="#E5E5E5" stroke-width="2"/>
<path d="M66.5136 177.384C65.1536 177.384 64.0016 177.024 63.0576 176.304C62.1136 175.584 61.3936 174.56 60.8976 173.232C60.4176 171.904 60.1776 170.328 60.1776 168.504C60.1776 166.664 60.4176 165.08 60.8976 163.752C61.3936 162.424 62.1136 161.4 63.0576 160.68C64.0016 159.944 65.1536 159.576 66.5136 159.576C68.0176 159.576 69.2976 160.072 70.3536 161.064C71.4096 162.04 72.1136 163.408 72.4656 165.168L70.2576 165.312C69.9856 164.08 69.5136 163.152 68.8416 162.528C68.1856 161.904 67.4096 161.592 66.5136 161.592C65.6016 161.592 64.8336 161.864 64.2096 162.408C63.6016 162.936 63.1376 163.72 62.8176 164.76C62.4976 165.784 62.3376 167.032 62.3376 168.504C62.3376 169.96 62.4976 171.2 62.8176 172.224C63.1376 173.248 63.6016 174.032 64.2096 174.576C64.8336 175.104 65.6016 175.368 66.5136 175.368C67.5056 175.368 68.3456 175.024 69.0336 174.336C69.7216 173.648 70.1856 172.624 70.4256 171.264L72.6096 171.384C72.3056 173.256 71.6176 174.728 70.5456 175.8C69.4736 176.856 68.1296 177.384 66.5136 177.384ZM75.3363 177V159.96H80.5203C82.3123 159.96 83.7283 160.416 84.7683 161.328C85.8083 162.224 86.3282 163.464 86.3282 165.048C86.3282 165.848 86.1442 166.56 85.7762 167.184C85.4083 167.792 84.9363 168.272 84.3603 168.624C83.7843 168.976 83.1923 169.176 82.5843 169.224L82.4883 168.936C83.6243 169 84.4723 169.272 85.0323 169.752C85.6083 170.232 85.9443 171.016 86.0403 172.104L86.4723 177H84.4083L84.0003 172.368C83.9523 171.84 83.8243 171.416 83.6163 171.096C83.4243 170.76 83.1123 170.52 82.6803 170.376C82.2643 170.216 81.6883 170.136 80.9523 170.136H77.4003V177H75.3363ZM77.4003 168.12H80.5203C81.7043 168.12 82.6083 167.856 83.2323 167.328C83.8563 166.784 84.1683 166.024 84.1683 165.048C84.1683 164.056 83.8563 163.296 83.2323 162.768C82.6083 162.24 81.7043 161.976 80.5203 161.976H77.4003V168.12ZM95.2469 177.384C93.4549 177.384 92.0469 176.816 91.0229 175.68C89.9989 174.544 89.4869 173 89.4869 171.048V159.96H91.5509V171.048C91.5509 172.456 91.8629 173.528 92.4869 174.264C93.1269 175 94.0469 175.368 95.2469 175.368C96.4469 175.368 97.3589 175 97.9829 174.264C98.6229 173.528 98.9429 172.456 98.9429 171.048V159.96H101.007V171.048C101.007 173 100.495 174.544 99.4709 175.68C98.4469 176.816 97.0389 177.384 95.2469 177.384ZM104.598 177V159.96H108.63C110.102 159.96 111.382 160.296 112.47 160.968C113.574 161.624 114.422 162.592 115.014 163.872C115.622 165.136 115.926 166.68 115.926 168.504C115.926 170.328 115.622 171.872 115.014 173.136C114.422 174.4 113.574 175.36 112.47 176.016C111.382 176.672 110.102 177 108.63 177H104.598ZM106.662 174.984H108.51C110.174 174.984 111.462 174.448 112.374 173.376C113.302 172.288 113.766 170.664 113.766 168.504C113.766 166.344 113.302 164.72 112.374 163.632C111.462 162.528 110.174 161.976 108.51 161.976H106.662V174.984ZM133.139 177V174.984H137.387V161.976H133.139V159.96H143.699V161.976H139.451V174.984H143.699V177H133.139ZM147.625 177V164.28H149.473L149.545 167.52L149.305 167.304C149.465 166.552 149.753 165.936 150.169 165.456C150.601 164.96 151.113 164.592 151.705 164.352C152.297 164.112 152.921 163.992 153.577 163.992C154.553 163.992 155.361 164.208 156.001 164.64C156.657 165.072 157.153 165.656 157.489 166.392C157.825 167.112 157.993 167.92 157.993 168.816V177H155.977V169.392C155.977 168.208 155.745 167.312 155.281 166.704C154.817 166.08 154.105 165.768 153.145 165.768C152.489 165.768 151.897 165.912 151.369 166.2C150.841 166.472 150.417 166.88 150.097 167.424C149.793 167.952 149.641 168.608 149.641 169.392V177H147.625ZM169.072 177C167.84 177 166.92 176.712 166.312 176.136C165.704 175.56 165.4 174.68 165.4 173.496V161.304H167.416V173.496C167.416 174.088 167.552 174.528 167.824 174.816C168.096 175.088 168.512 175.224 169.072 175.224H172.48V177H169.072ZM161.2 166.056V164.28H172.48V166.056H161.2ZM181.807 177.288C180.607 177.288 179.567 177.016 178.687 176.472C177.823 175.928 177.151 175.16 176.671 174.168C176.207 173.16 175.975 171.984 175.975 170.64C175.975 169.296 176.207 168.128 176.671 167.136C177.151 166.144 177.815 165.376 178.663 164.832C179.527 164.272 180.543 163.992 181.711 163.992C182.815 163.992 183.791 164.256 184.639 164.784C185.487 165.296 186.151 166.048 186.631 167.04C187.111 168.032 187.351 169.24 187.351 170.664V171.264H178.087C178.167 172.624 178.527 173.648 179.167 174.336C179.823 175.024 180.703 175.368 181.807 175.368C182.639 175.368 183.319 175.176 183.847 174.792C184.391 174.392 184.767 173.872 184.975 173.232L187.135 173.4C186.799 174.536 186.159 175.472 185.215 176.208C184.287 176.928 183.151 177.288 181.807 177.288ZM178.087 169.488H185.143C185.047 168.256 184.687 167.352 184.063 166.776C183.439 166.2 182.655 165.912 181.711 165.912C180.735 165.912 179.927 166.216 179.287 166.824C178.663 167.416 178.263 168.304 178.087 169.488ZM194.253 177V164.28H195.933L196.125 167.496L195.933 167.448C196.093 166.36 196.437 165.56 196.965 165.048C197.509 164.536 198.229 164.28 199.125 164.28H201.741V166.104H199.149C198.525 166.104 197.997 166.232 197.565 166.488C197.149 166.728 196.829 167.088 196.605 167.568C196.381 168.032 196.269 168.616 196.269 169.32V177H194.253ZM190.941 177V175.224H200.301V177H190.941ZM190.941 166.056V164.28H195.357V166.056H190.941ZM208.26 177V163.464C208.26 162.328 208.548 161.464 209.124 160.872C209.716 160.264 210.612 159.96 211.812 159.96H215.892V161.736H211.812C211.316 161.736 210.932 161.896 210.66 162.216C210.404 162.52 210.276 162.936 210.276 163.464V177H208.26ZM204.852 166.056V164.28H215.652V166.056H204.852ZM223.083 177.288C222.283 177.288 221.563 177.144 220.923 176.856C220.283 176.568 219.779 176.168 219.411 175.656C219.043 175.128 218.859 174.52 218.859 173.832C218.859 172.744 219.179 171.904 219.819 171.312C220.475 170.704 221.499 170.264 222.891 169.992L227.163 169.128C227.163 168.04 226.915 167.232 226.419 166.704C225.939 166.176 225.243 165.912 224.331 165.912C223.451 165.912 222.763 166.112 222.267 166.512C221.771 166.896 221.427 167.456 221.235 168.192L219.099 168.024C219.339 166.824 219.907 165.856 220.803 165.12C221.715 164.368 222.891 163.992 224.331 163.992C225.867 163.992 227.059 164.456 227.907 165.384C228.755 166.296 229.179 167.56 229.179 169.176V174.456C229.179 174.744 229.243 174.944 229.371 175.056C229.499 175.168 229.691 175.224 229.947 175.224H230.763V177C230.667 177.016 230.515 177.024 230.307 177.024C230.099 177.04 229.899 177.048 229.707 177.048C229.163 177.048 228.699 176.96 228.315 176.784C227.947 176.608 227.667 176.328 227.475 175.944C227.283 175.544 227.179 175.032 227.163 174.408H227.547C227.435 174.952 227.163 175.448 226.731 175.896C226.315 176.328 225.787 176.672 225.147 176.928C224.507 177.168 223.819 177.288 223.083 177.288ZM223.275 175.512C224.139 175.512 224.859 175.368 225.435 175.08C226.011 174.776 226.443 174.36 226.731 173.832C227.019 173.288 227.163 172.664 227.163 171.96V170.856L223.275 171.624C222.411 171.784 221.811 172.032 221.475 172.368C221.139 172.688 220.971 173.112 220.971 173.64C220.971 174.232 221.171 174.696 221.571 175.032C221.987 175.352 222.555 175.512 223.275 175.512ZM239.489 177.288C238.305 177.288 237.273 177.016 236.393 176.472C235.513 175.928 234.833 175.16 234.353 174.168C233.873 173.16 233.633 171.984 233.633 170.64C233.633 169.296 233.873 168.128 234.353 167.136C234.833 166.144 235.513 165.376 236.393 164.832C237.273 164.272 238.305 163.992 239.489 163.992C240.433 163.992 241.273 164.168 242.009 164.52C242.745 164.856 243.353 165.352 243.833 166.008C244.313 166.664 244.641 167.464 244.817 168.408L242.705 168.552C242.513 167.704 242.129 167.056 241.553 166.608C240.993 166.144 240.305 165.912 239.489 165.912C238.321 165.912 237.401 166.336 236.729 167.184C236.073 168.016 235.745 169.168 235.745 170.64C235.745 172.112 236.073 173.272 236.729 174.12C237.401 174.952 238.321 175.368 239.489 175.368C240.305 175.368 241.009 175.128 241.601 174.648C242.209 174.168 242.609 173.448 242.801 172.488L244.913 172.632C244.737 173.576 244.401 174.4 243.905 175.104C243.409 175.792 242.785 176.328 242.033 176.712C241.281 177.096 240.433 177.288 239.489 177.288ZM253.76 177.288C252.56 177.288 251.52 177.016 250.64 176.472C249.776 175.928 249.104 175.16 248.624 174.168C248.16 173.16 247.928 171.984 247.928 170.64C247.928 169.296 248.16 168.128 248.624 167.136C249.104 166.144 249.768 165.376 250.616 164.832C251.48 164.272 252.496 163.992 253.664 163.992C254.768 163.992 255.744 164.256 256.592 164.784C257.44 165.296 258.104 166.048 258.584 167.04C259.064 168.032 259.304 169.24 259.304 170.664V171.264H250.04C250.12 172.624 250.48 173.648 251.12 174.336C251.776 175.024 252.656 175.368 253.76 175.368C254.592 175.368 255.272 175.176 255.8 174.792C256.344 174.392 256.72 173.872 256.928 173.232L259.088 173.4C258.752 174.536 258.112 175.472 257.168 176.208C256.24 176.928 255.104 177.288 253.76 177.288ZM250.04 169.488H257.096C257 168.256 256.64 167.352 256.016 166.776C255.392 166.2 254.608 165.912 253.664 165.912C252.688 165.912 251.88 166.216 251.24 166.824C250.616 167.416 250.216 168.304 250.04 169.488Z" fill="#E5E5E5"/>
<rect x="1" y="1" width="318" height="78" rx="19" stroke="#E5E5E5" stroke-width="2" stroke-dasharray="4 4"/>
<path d="M138.419 49.384C136.627 49.384 135.219 48.816 134.195 47.68C133.171 46.544 132.659 45 132.659 43.048V31.96H134.723V43.048C134.723 44.456 135.035 45.528 135.659 46.264C136.299 47 137.219 47.368 138.419 47.368C139.619 47.368 140.531 47 141.155 46.264C141.795 45.528 142.115 44.456 142.115 43.048V31.96H144.179V43.048C144.179 45 143.667 46.544 142.643 47.68C141.619 48.816 140.211 49.384 138.419 49.384ZM153.049 49.288C151.945 49.288 150.993 49.096 150.193 48.712C149.393 48.328 148.761 47.816 148.297 47.176C147.849 46.52 147.593 45.792 147.529 44.992L149.641 44.848C149.769 45.632 150.113 46.248 150.673 46.696C151.249 47.144 152.041 47.368 153.049 47.368C153.993 47.368 154.721 47.232 155.233 46.96C155.761 46.688 156.025 46.264 156.025 45.688C156.025 45.32 155.937 45.016 155.761 44.776C155.585 44.536 155.257 44.336 154.777 44.176C154.297 44 153.593 43.832 152.665 43.672C151.433 43.448 150.465 43.176 149.761 42.856C149.073 42.52 148.585 42.104 148.297 41.608C148.009 41.112 147.865 40.52 147.865 39.832C147.865 39.096 148.049 38.44 148.417 37.864C148.785 37.288 149.329 36.832 150.049 36.496C150.769 36.16 151.649 35.992 152.689 35.992C153.745 35.992 154.625 36.184 155.329 36.568C156.049 36.936 156.617 37.432 157.033 38.056C157.449 38.664 157.721 39.336 157.849 40.072L155.737 40.216C155.641 39.768 155.457 39.376 155.185 39.04C154.929 38.688 154.585 38.416 154.153 38.224C153.737 38.016 153.241 37.912 152.665 37.912C151.737 37.912 151.049 38.096 150.601 38.464C150.153 38.832 149.929 39.288 149.929 39.832C149.929 40.264 150.033 40.608 150.241 40.864C150.449 41.12 150.785 41.328 151.249 41.488C151.713 41.632 152.329 41.768 153.097 41.896C154.409 42.104 155.425 42.376 156.145 42.712C156.865 43.032 157.369 43.432 157.657 43.912C157.945 44.392 158.089 44.984 158.089 45.688C158.089 46.44 157.865 47.088 157.417 47.632C156.985 48.16 156.385 48.568 155.617 48.856C154.865 49.144 154.009 49.288 153.049 49.288ZM167.416 49.288C166.216 49.288 165.176 49.016 164.296 48.472C163.432 47.928 162.76 47.16 162.28 46.168C161.816 45.16 161.584 43.984 161.584 42.64C161.584 41.296 161.816 40.128 162.28 39.136C162.76 38.144 163.424 37.376 164.272 36.832C165.136 36.272 166.152 35.992 167.32 35.992C168.424 35.992 169.4 36.256 170.248 36.784C171.096 37.296 171.76 38.048 172.24 39.04C172.72 40.032 172.96 41.24 172.96 42.664V43.264H163.696C163.776 44.624 164.136 45.648 164.776 46.336C165.432 47.024 166.312 47.368 167.416 47.368C168.248 47.368 168.928 47.176 169.456 46.792C170 46.392 170.376 45.872 170.584 45.232L172.744 45.4C172.408 46.536 171.768 47.472 170.824 48.208C169.896 48.928 168.76 49.288 167.416 49.288ZM163.696 41.488H170.752C170.656 40.256 170.296 39.352 169.672 38.776C169.048 38.2 168.264 37.912 167.32 37.912C166.344 37.912 165.536 38.216 164.896 38.824C164.272 39.416 163.872 40.304 163.696 41.488ZM179.863 49V36.28H181.543L181.735 39.496L181.543 39.448C181.703 38.36 182.047 37.56 182.575 37.048C183.119 36.536 183.839 36.28 184.735 36.28H187.351V38.104H184.759C184.135 38.104 183.607 38.232 183.175 38.488C182.759 38.728 182.439 39.088 182.215 39.568C181.991 40.032 181.879 40.616 181.879 41.32V49H179.863ZM176.551 49V47.224H185.911V49H176.551ZM176.551 38.056V36.28H180.967V38.056H176.551Z" fill="#E5E5E5"/>
<rect x="369" y="129" width="318" height="78" rx="19" stroke="#E5E5E5" stroke-width="2"/>
<path d="M411.968 175.08L408.752 161.88H408.944V177H406.88V159.96H410L413.36 173.976H412.4L415.76 159.96H418.88V177H416.816V161.88H417.008L413.792 175.08H411.968ZM425.59 177.288C424.79 177.288 424.07 177.144 423.43 176.856C422.79 176.568 422.286 176.168 421.918 175.656C421.55 175.128 421.366 174.52 421.366 173.832C421.366 172.744 421.686 171.904 422.326 171.312C422.982 170.704 424.006 170.264 425.398 169.992L429.67 169.128C429.67 168.04 429.422 167.232 428.926 166.704C428.446 166.176 427.75 165.912 426.838 165.912C425.958 165.912 425.27 166.112 424.774 166.512C424.278 166.896 423.934 167.456 423.742 168.192L421.606 168.024C421.846 166.824 422.414 165.856 423.31 165.12C424.222 164.368 425.398 163.992 426.838 163.992C428.374 163.992 429.566 164.456 430.414 165.384C431.262 166.296 431.686 167.56 431.686 169.176V174.456C431.686 174.744 431.75 174.944 431.878 175.056C432.006 175.168 432.198 175.224 432.454 175.224H433.27V177C433.174 177.016 433.022 177.024 432.814 177.024C432.606 177.04 432.406 177.048 432.214 177.048C431.67 177.048 431.206 176.96 430.822 176.784C430.454 176.608 430.174 176.328 429.982 175.944C429.79 175.544 429.686 175.032 429.67 174.408H430.054C429.942 174.952 429.67 175.448 429.238 175.896C428.822 176.328 428.294 176.672 427.654 176.928C427.014 177.168 426.326 177.288 425.59 177.288ZM425.782 175.512C426.646 175.512 427.366 175.368 427.942 175.08C428.518 174.776 428.95 174.36 429.238 173.832C429.526 173.288 429.67 172.664 429.67 171.96V170.856L425.782 171.624C424.918 171.784 424.318 172.032 423.982 172.368C423.646 172.688 423.478 173.112 423.478 173.64C423.478 174.232 423.678 174.696 424.078 175.032C424.494 175.352 425.062 175.512 425.782 175.512ZM436.381 180.6V164.28H438.253L438.301 167.16L438.013 167.016C438.333 166.024 438.861 165.272 439.597 164.76C440.349 164.248 441.213 163.992 442.189 163.992C443.453 163.992 444.485 164.304 445.285 164.928C446.101 165.552 446.701 166.368 447.085 167.376C447.469 168.384 447.661 169.472 447.661 170.64C447.661 171.808 447.469 172.896 447.085 173.904C446.701 174.912 446.101 175.728 445.285 176.352C444.485 176.976 443.453 177.288 442.189 177.288C441.533 177.288 440.917 177.176 440.341 176.952C439.781 176.728 439.301 176.416 438.901 176.016C438.517 175.616 438.253 175.144 438.109 174.6L438.397 174.264V180.6H436.381ZM441.997 175.368C443.101 175.368 443.965 174.952 444.589 174.12C445.229 173.288 445.549 172.128 445.549 170.64C445.549 169.152 445.229 167.992 444.589 167.16C443.965 166.328 443.101 165.912 441.997 165.912C441.261 165.912 440.621 166.088 440.077 166.44C439.549 166.792 439.133 167.32 438.829 168.024C438.541 168.728 438.397 169.6 438.397 170.64C438.397 171.68 438.541 172.552 438.829 173.256C439.117 173.96 439.533 174.488 440.077 174.84C440.621 175.192 441.261 175.368 441.997 175.368ZM469.098 177L463.962 159.96H466.17L470.73 175.656H470.154L474.714 159.96H476.922L471.786 177H469.098ZM484.665 177V164.28H486.681V177H484.665ZM479.553 177V175.224H491.073V177H479.553ZM479.793 166.056V164.28H486.681V166.056H479.793ZM484.473 162.288V159.936H486.585V162.288H484.473ZM499.463 177.288C498.359 177.288 497.407 177.096 496.607 176.712C495.807 176.328 495.175 175.816 494.711 175.176C494.263 174.52 494.007 173.792 493.943 172.992L496.055 172.848C496.183 173.632 496.527 174.248 497.087 174.696C497.663 175.144 498.455 175.368 499.463 175.368C500.407 175.368 501.135 175.232 501.647 174.96C502.175 174.688 502.439 174.264 502.439 173.688C502.439 173.32 502.351 173.016 502.175 172.776C501.999 172.536 501.671 172.336 501.191 172.176C500.711 172 500.007 171.832 499.079 171.672C497.847 171.448 496.879 171.176 496.175 170.856C495.487 170.52 494.999 170.104 494.711 169.608C494.423 169.112 494.279 168.52 494.279 167.832C494.279 167.096 494.463 166.44 494.831 165.864C495.199 165.288 495.743 164.832 496.463 164.496C497.183 164.16 498.063 163.992 499.103 163.992C500.159 163.992 501.039 164.184 501.743 164.568C502.463 164.936 503.031 165.432 503.447 166.056C503.863 166.664 504.135 167.336 504.263 168.072L502.151 168.216C502.055 167.768 501.871 167.376 501.599 167.04C501.343 166.688 500.999 166.416 500.567 166.224C500.151 166.016 499.655 165.912 499.079 165.912C498.151 165.912 497.463 166.096 497.015 166.464C496.567 166.832 496.343 167.288 496.343 167.832C496.343 168.264 496.447 168.608 496.655 168.864C496.863 169.12 497.199 169.328 497.663 169.488C498.127 169.632 498.743 169.768 499.511 169.896C500.823 170.104 501.839 170.376 502.559 170.712C503.279 171.032 503.783 171.432 504.071 171.912C504.359 172.392 504.503 172.984 504.503 173.688C504.503 174.44 504.279 175.088 503.831 175.632C503.399 176.16 502.799 176.568 502.031 176.856C501.279 177.144 500.423 177.288 499.463 177.288ZM512.726 177.288C511.462 177.288 510.454 176.864 509.702 176.016C508.95 175.152 508.574 173.968 508.574 172.464V164.28H510.59V171.912C510.59 173.144 510.806 174.056 511.238 174.648C511.686 175.224 512.366 175.512 513.278 175.512C514.27 175.512 515.054 175.192 515.63 174.552C516.206 173.896 516.494 173 516.494 171.864V164.28H518.51V177H516.59V173.856L516.902 174.024C516.646 175.064 516.158 175.872 515.438 176.448C514.718 177.008 513.814 177.288 512.726 177.288ZM526.325 177.288C525.525 177.288 524.805 177.144 524.165 176.856C523.525 176.568 523.021 176.168 522.653 175.656C522.285 175.128 522.101 174.52 522.101 173.832C522.101 172.744 522.421 171.904 523.061 171.312C523.717 170.704 524.741 170.264 526.133 169.992L530.405 169.128C530.405 168.04 530.157 167.232 529.661 166.704C529.181 166.176 528.485 165.912 527.573 165.912C526.693 165.912 526.005 166.112 525.509 166.512C525.013 166.896 524.669 167.456 524.477 168.192L522.341 168.024C522.581 166.824 523.149 165.856 524.045 165.12C524.957 164.368 526.133 163.992 527.573 163.992C529.109 163.992 530.301 164.456 531.149 165.384C531.997 166.296 532.421 167.56 532.421 169.176V174.456C532.421 174.744 532.485 174.944 532.613 175.056C532.741 175.168 532.933 175.224 533.189 175.224H534.005V177C533.909 177.016 533.757 177.024 533.549 177.024C533.341 177.04 533.141 177.048 532.949 177.048C532.405 177.048 531.941 176.96 531.557 176.784C531.189 176.608 530.909 176.328 530.717 175.944C530.525 175.544 530.421 175.032 530.405 174.408H530.789C530.677 174.952 530.405 175.448 529.973 175.896C529.557 176.328 529.029 176.672 528.389 176.928C527.749 177.168 527.061 177.288 526.325 177.288ZM526.517 175.512C527.381 175.512 528.101 175.368 528.677 175.08C529.253 174.776 529.685 174.36 529.973 173.832C530.261 173.288 530.405 172.664 530.405 171.96V170.856L526.517 171.624C525.653 171.784 525.053 172.032 524.717 172.368C524.381 172.688 524.213 173.112 524.213 173.64C524.213 174.232 524.413 174.696 524.813 175.032C525.229 175.352 525.797 175.512 526.517 175.512ZM541.747 177V163.368C541.747 162.856 541.603 162.456 541.315 162.168C541.027 161.88 540.627 161.736 540.115 161.736H537.115V159.96H540.211C541.379 159.96 542.259 160.264 542.851 160.872C543.459 161.464 543.763 162.344 543.763 163.512V177H541.747ZM536.635 177V175.224H548.155V177H536.635ZM556.618 177V164.28H558.634V177H556.618ZM551.506 177V175.224H563.026V177H551.506ZM551.746 166.056V164.28H558.634V166.056H551.746ZM556.426 162.288V159.936H558.538V162.288H556.426ZM565.945 177V174.984L574.009 166.056H566.185V164.28H576.217V166.296L568.153 175.224H576.409V177H565.945ZM583.887 177.288C583.087 177.288 582.367 177.144 581.727 176.856C581.087 176.568 580.583 176.168 580.215 175.656C579.847 175.128 579.663 174.52 579.663 173.832C579.663 172.744 579.983 171.904 580.623 171.312C581.279 170.704 582.303 170.264 583.695 169.992L587.967 169.128C587.967 168.04 587.719 167.232 587.223 166.704C586.743 166.176 586.047 165.912 585.135 165.912C584.255 165.912 583.567 166.112 583.071 166.512C582.575 166.896 582.231 167.456 582.039 168.192L579.903 168.024C580.143 166.824 580.711 165.856 581.607 165.12C582.519 164.368 583.695 163.992 585.135 163.992C586.671 163.992 587.863 164.456 588.711 165.384C589.559 166.296 589.983 167.56 589.983 169.176V174.456C589.983 174.744 590.047 174.944 590.175 175.056C590.303 175.168 590.495 175.224 590.751 175.224H591.567V177C591.471 177.016 591.319 177.024 591.111 177.024C590.903 177.04 590.703 177.048 590.511 177.048C589.967 177.048 589.503 176.96 589.119 176.784C588.751 176.608 588.471 176.328 588.279 175.944C588.087 175.544 587.983 175.032 587.967 174.408H588.351C588.239 174.952 587.967 175.448 587.535 175.896C587.119 176.328 586.591 176.672 585.951 176.928C585.311 177.168 584.623 177.288 583.887 177.288ZM584.079 175.512C584.943 175.512 585.663 175.368 586.239 175.08C586.815 174.776 587.247 174.36 587.535 173.832C587.823 173.288 587.967 172.664 587.967 171.96V170.856L584.079 171.624C583.215 171.784 582.615 172.032 582.279 172.368C581.943 172.688 581.775 173.112 581.775 173.64C581.775 174.232 581.975 174.696 582.375 175.032C582.791 175.352 583.359 175.512 584.079 175.512ZM601.83 177C600.598 177 599.678 176.712 599.07 176.136C598.462 175.56 598.158 174.68 598.158 173.496V161.304H600.174V173.496C600.174 174.088 600.31 174.528 600.582 174.816C600.854 175.088 601.27 175.224 601.83 175.224H605.238V177H601.83ZM593.958 166.056V164.28H605.238V166.056H593.958ZM614.18 177V164.28H616.196V177H614.18ZM609.068 177V175.224H620.588V177H609.068ZM609.308 166.056V164.28H616.196V166.056H609.308ZM613.988 162.288V159.936H616.1V162.288H613.988ZM628.739 177.288C627.571 177.288 626.547 177.016 625.667 176.472C624.803 175.928 624.131 175.16 623.651 174.168C623.171 173.16 622.931 171.984 622.931 170.64C622.931 169.28 623.171 168.104 623.651 167.112C624.131 166.12 624.803 165.352 625.667 164.808C626.547 164.264 627.571 163.992 628.739 163.992C629.907 163.992 630.923 164.264 631.787 164.808C632.667 165.352 633.347 166.12 633.827 167.112C634.307 168.104 634.547 169.28 634.547 170.64C634.547 171.984 634.307 173.16 633.827 174.168C633.347 175.16 632.667 175.928 631.787 176.472C630.923 177.016 629.907 177.288 628.739 177.288ZM628.739 175.368C629.907 175.368 630.811 174.952 631.451 174.12C632.107 173.272 632.435 172.112 632.435 170.64C632.435 169.168 632.107 168.016 631.451 167.184C630.811 166.336 629.907 165.912 628.739 165.912C627.571 165.912 626.659 166.336 626.003 167.184C625.363 168.016 625.043 169.168 625.043 170.64C625.043 172.112 625.363 173.272 626.003 174.12C626.659 174.952 627.571 175.368 628.739 175.368ZM637.946 177V164.28H639.794L639.866 167.52L639.626 167.304C639.786 166.552 640.074 165.936 640.49 165.456C640.922 164.96 641.434 164.592 642.026 164.352C642.618 164.112 643.242 163.992 643.898 163.992C644.874 163.992 645.682 164.208 646.322 164.64C646.978 165.072 647.474 165.656 647.81 166.392C648.146 167.112 648.314 167.92 648.314 168.816V177H646.298V169.392C646.298 168.208 646.066 167.312 645.602 166.704C645.138 166.08 644.426 165.768 643.466 165.768C642.81 165.768 642.218 165.912 641.69 166.2C641.162 166.472 640.738 166.88 640.418 167.424C640.114 167.952 639.962 168.608 639.962 169.392V177H637.946Z" fill="#E5E5E5"/>
<path d="M160 128L165.774 118H154.226L160 128ZM160 78L154.226 88H165.774L160 78ZM161 119V87H159V119H161Z" fill="#E5E5E5"/>
<path d="M955 449L960.774 439L949.226 439L955 449ZM954 399L954 440L956 440L956 399L954 399Z" fill="#E5E5E5"/>
<path d="M955 577L960.774 567L949.226 567L955 577ZM954 527L954 568L956 568L956 527L954 527Z" fill="#E5E5E5"/>
<path d="M521 336L515.226 346H526.774L521 336ZM522 386V383.917H520V386H522ZM522 379.75V375.583H520V379.75H522ZM522 371.417V367.25H520V371.417H522ZM522 363.083V358.917H520V363.083H522ZM522 354.75V350.583H520V354.75H522ZM522 346.417V342.25H520V346.417H522ZM521 336L515.226 346H526.774L521 336ZM522 386V383.917H520V386H522ZM522 379.75V375.583H520V379.75H522ZM522 371.417V367.25H520V371.417H522ZM522 363.083V358.917H520V363.083H522ZM522 354.75V350.583H520V354.75H522ZM522 346.417V342.25H520V346.417H522Z" fill="#515151"/>
<path d="M521 207L515.226 217H526.774L521 207ZM522 257V216H520V257H522Z" fill="#E5E5E5"/>
<path d="M776 427V428H777V427H776ZM776 373V372H775V373H776ZM866 373L856 367.226V378.774L866 373ZM688 428H690V426H688V428ZM694 428H698V426H694V428ZM702 428H706V426H702V428ZM710 428H714V426H710V428ZM718 428H722V426H718V428ZM726 428H730V426H726V428ZM734 428H738V426H734V428ZM742 428H746V426H742V428ZM750 428H754V426H750V428ZM758 428H762V426H758V428ZM766 428H770V426H766V428ZM774 428H776V426H774V428ZM777 427V425.071H775V427H777ZM777 421.214V417.357H775V421.214H777ZM777 413.5V409.643H775V413.5H777ZM777 405.786V401.929H775V405.786H777ZM777 398.071V394.214H775V398.071H777ZM777 390.357V386.5H775V390.357H777ZM777 382.643V378.786H775V382.643H777ZM777 374.929V373H775V374.929H777ZM776 374H778.045V372H776V374ZM782.136 374H786.227V372H782.136V374ZM790.318 374H794.409V372H790.318V374ZM798.5 374H802.591V372H798.5V374ZM806.682 374H810.773V372H806.682V374ZM814.864 374H818.955V372H814.864V374ZM823.045 374H827.136V372H823.045V374ZM831.227 374H835.318V372H831.227V374ZM839.409 374H843.5V372H839.409V374ZM847.591 374H851.682V372H847.591V374ZM855.773 374H859.864V372H855.773V374Z" fill="#515151"/>
<path d="M688 299L698 304.774V293.226L688 299ZM775.5 299H776.5V298H775.5V299ZM775.5 349H774.5V350H775.5V349ZM865 349L855 343.227V354.774L865 349ZM697 300H775.5V298H697V300ZM774.5 299V349H776.5V299H774.5ZM775.5 350H856V348H775.5V350Z" fill="#E5E5E5"/>
<path d="M368 301L358 295.226V306.774L368 301ZM161.5 301H160.5V302H161.5V301ZM161.5 209L155.726 219H167.274L161.5 209ZM359 300H161.5V302H359V300ZM162.5 301V218H160.5V301H162.5Z" fill="#E5E5E5"/>
<path d="M320 36L330 41.7735L330 30.2265L320 36ZM521 36L522 36L522 35L521 35L521 36ZM329 37L521 37L521 35L329 35L329 37ZM520 36L520 128L522 128L522 36L520 36Z" fill="#E5E5E5"/>
<path d="M1244 618.5V619.5H1245V618.5H1244ZM1244 360H1245V359H1244V360ZM1186 360L1196 365.774V354.226L1186 360ZM1186 619.5H1244V617.5H1186V619.5ZM1245 618.5V360H1243V618.5H1245ZM1244 359H1195V361H1244V359Z" fill="#E5E5E5"/>
</svg>
